<mxfile host="app.diagrams.net" agent="Mozilla/5.0 (Windows NT 10.0; Win64; x64) AppleWebKit/537.36 (KHTML, like Gecko) Chrome/141.0.0.0 Safari/537.36 Edg/141.0.0.0" version="28.2.7">
  <diagram name="Seite-1" id="jy354qmWuVlI-Uf6WHHr">
    <mxGraphModel dx="1239" dy="674" grid="1" gridSize="10" guides="1" tooltips="1" connect="1" arrows="1" fold="1" page="1" pageScale="1" pageWidth="1169" pageHeight="827" math="0" shadow="0">
      <root>
        <mxCell id="0" />
        <mxCell id="1" parent="0" />
        <mxCell id="s4KMNy_xZVg9EMG5jO13-3" style="edgeStyle=orthogonalEdgeStyle;rounded=0;orthogonalLoop=1;jettySize=auto;html=1;" edge="1" parent="1" source="s4KMNy_xZVg9EMG5jO13-1" target="s4KMNy_xZVg9EMG5jO13-2">
          <mxGeometry relative="1" as="geometry" />
        </mxCell>
        <mxCell id="s4KMNy_xZVg9EMG5jO13-4" value="a" style="edgeLabel;html=1;align=center;verticalAlign=middle;resizable=0;points=[];" vertex="1" connectable="0" parent="s4KMNy_xZVg9EMG5jO13-3">
          <mxGeometry x="0.04" relative="1" as="geometry">
            <mxPoint as="offset" />
          </mxGeometry>
        </mxCell>
        <mxCell id="s4KMNy_xZVg9EMG5jO13-1" value="S" style="ellipse;whiteSpace=wrap;html=1;aspect=fixed;" vertex="1" parent="1">
          <mxGeometry x="190" y="230" width="80" height="80" as="geometry" />
        </mxCell>
        <mxCell id="s4KMNy_xZVg9EMG5jO13-8" style="edgeStyle=orthogonalEdgeStyle;rounded=0;orthogonalLoop=1;jettySize=auto;html=1;" edge="1" parent="1" source="s4KMNy_xZVg9EMG5jO13-2" target="s4KMNy_xZVg9EMG5jO13-5">
          <mxGeometry relative="1" as="geometry" />
        </mxCell>
        <mxCell id="s4KMNy_xZVg9EMG5jO13-9" value="d" style="edgeLabel;html=1;align=center;verticalAlign=middle;resizable=0;points=[];" vertex="1" connectable="0" parent="s4KMNy_xZVg9EMG5jO13-8">
          <mxGeometry x="-0.08" y="2" relative="1" as="geometry">
            <mxPoint as="offset" />
          </mxGeometry>
        </mxCell>
        <mxCell id="s4KMNy_xZVg9EMG5jO13-2" value="A" style="ellipse;whiteSpace=wrap;html=1;aspect=fixed;" vertex="1" parent="1">
          <mxGeometry x="320" y="230" width="80" height="80" as="geometry" />
        </mxCell>
        <mxCell id="s4KMNy_xZVg9EMG5jO13-10" style="rounded=0;orthogonalLoop=1;jettySize=auto;html=1;exitX=0;exitY=1;exitDx=0;exitDy=0;entryX=1;entryY=1;entryDx=0;entryDy=0;curved=1;" edge="1" parent="1" source="s4KMNy_xZVg9EMG5jO13-5" target="s4KMNy_xZVg9EMG5jO13-2">
          <mxGeometry relative="1" as="geometry">
            <Array as="points">
              <mxPoint x="430" y="320" />
            </Array>
          </mxGeometry>
        </mxCell>
        <mxCell id="s4KMNy_xZVg9EMG5jO13-11" value="c" style="edgeLabel;html=1;align=center;verticalAlign=middle;resizable=0;points=[];" vertex="1" connectable="0" parent="s4KMNy_xZVg9EMG5jO13-10">
          <mxGeometry x="0.1014" y="-8" relative="1" as="geometry">
            <mxPoint as="offset" />
          </mxGeometry>
        </mxCell>
        <mxCell id="s4KMNy_xZVg9EMG5jO13-13" style="rounded=0;orthogonalLoop=1;jettySize=auto;html=1;exitX=1;exitY=0.5;exitDx=0;exitDy=0;entryX=0;entryY=0.5;entryDx=0;entryDy=0;" edge="1" parent="1" source="s4KMNy_xZVg9EMG5jO13-5" target="s4KMNy_xZVg9EMG5jO13-12">
          <mxGeometry relative="1" as="geometry" />
        </mxCell>
        <mxCell id="s4KMNy_xZVg9EMG5jO13-14" value="[ab]" style="edgeLabel;html=1;align=center;verticalAlign=middle;resizable=0;points=[];" vertex="1" connectable="0" parent="s4KMNy_xZVg9EMG5jO13-13">
          <mxGeometry x="-0.0459" y="-1" relative="1" as="geometry">
            <mxPoint as="offset" />
          </mxGeometry>
        </mxCell>
        <mxCell id="s4KMNy_xZVg9EMG5jO13-5" value="B" style="ellipse;whiteSpace=wrap;html=1;aspect=fixed;" vertex="1" parent="1">
          <mxGeometry x="450" y="230" width="80" height="80" as="geometry" />
        </mxCell>
        <mxCell id="s4KMNy_xZVg9EMG5jO13-6" style="rounded=0;orthogonalLoop=1;jettySize=auto;html=1;exitX=0;exitY=0;exitDx=0;exitDy=0;entryX=1;entryY=0;entryDx=0;entryDy=0;curved=1;" edge="1" parent="1" source="s4KMNy_xZVg9EMG5jO13-2" target="s4KMNy_xZVg9EMG5jO13-2">
          <mxGeometry relative="1" as="geometry">
            <Array as="points">
              <mxPoint x="360" y="170" />
            </Array>
          </mxGeometry>
        </mxCell>
        <mxCell id="s4KMNy_xZVg9EMG5jO13-7" value="[bc]" style="edgeLabel;html=1;align=center;verticalAlign=middle;resizable=0;points=[];" vertex="1" connectable="0" parent="s4KMNy_xZVg9EMG5jO13-6">
          <mxGeometry x="-0.4271" y="-12" relative="1" as="geometry">
            <mxPoint as="offset" />
          </mxGeometry>
        </mxCell>
        <mxCell id="s4KMNy_xZVg9EMG5jO13-12" value="C" style="ellipse;whiteSpace=wrap;html=1;aspect=fixed;" vertex="1" parent="1">
          <mxGeometry x="584.5" y="230" width="80" height="80" as="geometry" />
        </mxCell>
        <mxCell id="s4KMNy_xZVg9EMG5jO13-15" value="C" style="ellipse;whiteSpace=wrap;html=1;aspect=fixed;" vertex="1" parent="1">
          <mxGeometry x="589.5" y="235" width="70" height="70" as="geometry" />
        </mxCell>
      </root>
    </mxGraphModel>
  </diagram>
</mxfile>
